<svg xmlns="http://www.w3.org/2000/svg" width="36.869" height="17.049" viewBox="0 0 36.869 17.049">
  <g id="Grupo_1489" data-name="Grupo 1489" transform="translate(0 -0.368)">
    <path id="Caminho_33" data-name="Caminho 33" d="M7.976,7.3A2.376,2.376,0,1,1,5.6,9.676,2.372,2.372,0,0,1,7.976,7.3Z" transform="translate(-0.696 -0.897)" fill="none" stroke="#fff" stroke-miterlimit="10" stroke-width="2"/>
    <path id="Caminho_34" data-name="Caminho 34" d="M14.578,13.786h0c.085-.085.17-.17.17-.255h0c.085-.085.085-.17.17-.255h0c.085-.17.255-.339.339-.509h0c.085-.085.085-.17.17-.255h0L15.682,12h0l.255-.509h0c0-.085.085-.17.085-.255H32.994l2.461-2.461L30.7,4.026,28.411,6.318,26.12,4.026,23.829,6.318,21.537,4.026,19.246,6.318h-3.14c0-.085-.085-.17-.085-.255h0l-.255-.509h0a4.869,4.869,0,0,1-.339-.594h0c-.085-.085-.085-.17-.17-.255h0a1.775,1.775,0,0,0-.339-.509h0c-.085-.085-.085-.17-.17-.255h0c-.085-.085-.085-.17-.17-.255h0c-.085-.085-.085-.17-.17-.17h0c-.085-.17-.255-.255-.424-.424h0c-.085-.085-.17-.085-.17-.17h0a1.05,1.05,0,0,1-.255-.17h0c-.085-.085-.17-.085-.255-.17h0a.847.847,0,0,1-.424-.339h0c-.085-.085-.17-.085-.255-.17h0c-.085,0-.17-.085-.255-.085h0c-.085,0-.17-.085-.255-.085h-.085a1.206,1.206,0,0,0-.509-.17h-.085c-.085,0-.17-.085-.255-.085h0c-.085,0-.17-.085-.255-.085h0c-.085,0-.17-.085-.255-.085H10.59a1.076,1.076,0,0,0-.509-.085H8.723A7.219,7.219,0,0,0,1,8.355v.339H1a7.751,7.751,0,0,0,7.723,7.723h1.358c.17,0,.339-.085.509-.085h.085c.085,0,.17-.085.255-.085h0c.085,0,.17-.085.255-.085h0c.085,0,.17-.085.255-.085h.085a1.206,1.206,0,0,1,.509-.17h.085c.085,0,.17-.085.255-.085h0c.085,0,.17-.085.255-.085h0c.085-.085.17-.085.255-.17h0a.847.847,0,0,0,.424-.339h0c.085-.085.17-.085.255-.17h0c.085-.085.17-.085.17-.17h0c.085-.085.17-.085.17-.17h0c.17-.085.255-.255.424-.424h0C14.494,13.956,14.494,13.871,14.578,13.786Z" fill="none" stroke="#fff" stroke-miterlimit="10" stroke-width="2"/>
  </g>
</svg>
